<?xml version="1.0" standalone="no"?>
<!DOCTYPE svg PUBLIC "-//W3C//DTD SVG 20010904//EN"
 "http://www.w3.org/TR/2001/REC-SVG-20010904/DTD/svg10.dtd">
<svg version="1.0" xmlns="http://www.w3.org/2000/svg"
 width="1024.000000pt" height="1024.000000pt" viewBox="0 0 1024.000000 1024.000000"
 preserveAspectRatio="xMidYMid meet">
<metadata>
Created by potrace 1.14, written by Peter Selinger 2001-2017
</metadata>
<g transform="translate(0.000000,1024.000000) scale(0.100000,-0.100000)"
fill="#000000" stroke="none">
<path d="M0 5120 l0 -5120 5120 0 5120 0 0 5120 0 5120 -5120 0 -5120 0 0
-5120z m4226 1701 c93 -9 333 -57 346 -69 3 -4 -11 -266 -32 -582 -22 -316
-40 -583 -40 -592 0 -17 -18 -18 -235 -18 l-235 0 0 375 c0 206 -3 375 -7 375
-5 0 -56 -5 -116 -10 -316 -30 -573 -196 -773 -501 -84 -128 -182 -331 -244
-507 l-50 -143 0 -745 0 -744 360 0 360 0 0 -220 0 -220 -915 0 -915 0 0 220
0 220 275 0 275 0 0 1330 0 1330 -275 0 -275 0 0 215 0 215 489 0 489 0 6 -37
c3 -21 26 -202 51 -403 25 -201 47 -369 49 -375 1 -5 22 28 45 74 165 326 393
577 636 699 189 94 470 138 731 113z m2612 -27 c221 -64 328 -167 419 -403 9
-24 11 -22 65 45 58 73 185 199 253 251 160 123 427 168 661 112 256 -61 415
-274 471 -629 17 -107 18 -213 18 -1530 l0 -1415 -262 -3 -262 -2 -4 1427 c-3
1300 -5 1436 -21 1513 -21 107 -42 147 -95 185 -37 26 -51 30 -134 33 -80 4
-103 1 -172 -23 -44 -14 -107 -43 -139 -63 -77 -46 -192 -155 -258 -245 l-53
-71 -5 -1376 -5 -1375 -262 -3 -263 -2 0 1312 c0 1314 -5 1532 -36 1668 -21
92 -44 126 -107 155 -108 51 -277 27 -428 -61 -74 -43 -203 -169 -272 -266
l-47 -67 0 -1370 0 -1371 -260 0 -260 0 0 1765 0 1765 223 0 223 0 13 -167 c7
-93 15 -183 18 -201 l5 -33 37 49 c108 144 249 278 356 337 167 93 386 115
583 59z"/>
</g>
</svg>
